<svg width="179" height="79" viewBox="0 0 179 79" fill="none" xmlns="http://www.w3.org/2000/svg">
<path d="M0.99 72.5C0.99 71.52 1.27 70.68 1.83 69.98C2.39 69.26 3.16 68.71 4.14 68.33C5.14 67.93 6.29 67.73 7.59 67.73C8.35 67.73 9.14 67.79 9.96 67.91C10.78 68.03 11.51 68.21 12.15 68.45V67.13C12.15 65.81 11.76 64.76 10.98 63.98C10.2 63.2 9.12 62.81 7.74 62.81C6.9 62.81 6.07 62.97 5.25 63.29C4.45 63.59 3.61 64.04 2.73 64.64L1.95 63.2C2.97 62.5 3.97 61.98 4.95 61.64C5.93 61.28 6.93 61.1 7.95 61.1C9.87 61.1 11.39 61.65 12.51 62.75C13.63 63.85 14.19 65.37 14.19 67.31V74.54C14.19 74.82 14.25 75.03 14.37 75.17C14.49 75.29 14.68 75.36 14.94 75.38V77C14.72 77.02 14.53 77.04 14.37 77.06C14.21 77.08 14.09 77.08 14.01 77.06C13.51 77.04 13.13 76.88 12.87 76.58C12.61 76.28 12.47 75.96 12.45 75.62L12.42 74.48C11.72 75.38 10.81 76.08 9.69 76.58C8.57 77.06 7.43 77.3 6.27 77.3C5.27 77.3 4.36 77.09 3.54 76.67C2.74 76.23 2.11 75.65 1.65 74.93C1.21 74.19 0.99 73.38 0.99 72.5ZM11.46 73.7C11.68 73.42 11.85 73.15 11.97 72.89C12.09 72.63 12.15 72.4 12.15 72.2V69.92C11.47 69.66 10.76 69.46 10.02 69.32C9.3 69.18 8.57 69.11 7.83 69.11C6.37 69.11 5.19 69.4 4.29 69.98C3.39 70.56 2.94 71.35 2.94 72.35C2.94 72.93 3.09 73.48 3.39 74C3.69 74.5 4.13 74.92 4.71 75.26C5.29 75.58 5.97 75.74 6.75 75.74C7.73 75.74 8.64 75.55 9.48 75.17C10.34 74.79 11 74.3 11.46 73.7ZM17.5477 69.23C17.5477 67.75 17.8477 66.4 18.4477 65.18C19.0677 63.94 19.9177 62.95 20.9977 62.21C22.0777 61.47 23.3077 61.1 24.6877 61.1C25.9877 61.1 27.1477 61.45 28.1677 62.15C29.2077 62.83 30.0177 63.66 30.5977 64.64V55.1H32.6377V74.54C32.6377 74.82 32.6977 75.03 32.8177 75.17C32.9377 75.29 33.1177 75.36 33.3577 75.38V77C32.9577 77.06 32.6477 77.08 32.4277 77.06C32.0077 77.04 31.6377 76.87 31.3177 76.55C30.9977 76.23 30.8377 75.88 30.8377 75.5V73.97C30.2177 74.99 29.3777 75.8 28.3177 76.4C27.2577 77 26.1577 77.3 25.0177 77.3C23.9377 77.3 22.9377 77.08 22.0177 76.64C21.1177 76.2 20.3277 75.6 19.6477 74.84C18.9877 74.08 18.4677 73.22 18.0877 72.26C17.7277 71.28 17.5477 70.27 17.5477 69.23ZM30.5977 71.63V66.8C30.3377 66.08 29.9177 65.43 29.3377 64.85C28.7577 64.25 28.0977 63.78 27.3577 63.44C26.6377 63.08 25.9177 62.9 25.1977 62.9C24.3577 62.9 23.5977 63.08 22.9177 63.44C22.2377 63.78 21.6477 64.25 21.1477 64.85C20.6677 65.45 20.2977 66.13 20.0377 66.89C19.7777 67.65 19.6477 68.43 19.6477 69.23C19.6477 70.07 19.7877 70.87 20.0677 71.63C20.3677 72.39 20.7877 73.07 21.3277 73.67C21.8677 74.25 22.4877 74.7 23.1877 75.02C23.8877 75.34 24.6477 75.5 25.4677 75.5C25.9877 75.5 26.5277 75.4 27.0877 75.2C27.6477 75 28.1777 74.73 28.6777 74.39C29.1977 74.03 29.6277 73.61 29.9677 73.13C30.3077 72.65 30.5177 72.15 30.5977 71.63ZM41.9098 77L35.5798 61.37H37.7098L43.0498 74.96L48.4198 61.37H50.4298L44.0998 77H41.9098ZM59.3885 77.3C58.2685 77.3 57.2285 77.09 56.2685 76.67C55.3285 76.23 54.5085 75.64 53.8085 74.9C53.1285 74.14 52.5985 73.28 52.2185 72.32C51.8385 71.34 51.6485 70.31 51.6485 69.23C51.6485 68.11 51.8385 67.07 52.2185 66.11C52.5985 65.13 53.1385 64.27 53.8385 63.53C54.5385 62.77 55.3585 62.18 56.2985 61.76C57.2585 61.32 58.2985 61.1 59.4185 61.1C60.5385 61.1 61.5685 61.32 62.5085 61.76C63.4485 62.18 64.2685 62.77 64.9685 63.53C65.6685 64.27 66.2085 65.13 66.5885 66.11C66.9685 67.07 67.1585 68.11 67.1585 69.23C67.1585 70.31 66.9685 71.34 66.5885 72.32C66.2085 73.28 65.6685 74.14 64.9685 74.9C64.2885 75.64 63.4685 76.23 62.5085 76.67C61.5685 77.09 60.5285 77.3 59.3885 77.3ZM53.7185 69.26C53.7185 70.42 53.9685 71.48 54.4685 72.44C54.9885 73.38 55.6785 74.13 56.5385 74.69C57.3985 75.23 58.3485 75.5 59.3885 75.5C60.4285 75.5 61.3785 75.22 62.2385 74.66C63.0985 74.1 63.7885 73.34 64.3085 72.38C64.8285 71.4 65.0885 70.34 65.0885 69.2C65.0885 68.04 64.8285 66.98 64.3085 66.02C63.7885 65.06 63.0985 64.3 62.2385 63.74C61.3785 63.18 60.4285 62.9 59.3885 62.9C58.3485 62.9 57.3985 63.19 56.5385 63.77C55.6985 64.35 55.0185 65.12 54.4985 66.08C53.9785 67.02 53.7185 68.08 53.7185 69.26ZM77.3503 77.3C76.2103 77.3 75.1603 77.09 74.2003 76.67C73.2603 76.23 72.4303 75.63 71.7103 74.87C71.0103 74.11 70.4603 73.24 70.0603 72.26C69.6803 71.28 69.4903 70.24 69.4903 69.14C69.4903 67.66 69.8203 66.31 70.4803 65.09C71.1403 63.87 72.0603 62.9 73.2403 62.18C74.4203 61.46 75.7803 61.1 77.3203 61.1C78.7803 61.1 80.0703 61.44 81.1903 62.12C82.3103 62.78 83.1403 63.68 83.6803 64.82L81.7003 65.45C81.2603 64.65 80.6403 64.03 79.8403 63.59C79.0603 63.13 78.1903 62.9 77.2303 62.9C76.1903 62.9 75.2403 63.17 74.3803 63.71C73.5203 64.25 72.8303 64.99 72.3103 65.93C71.8103 66.87 71.5603 67.94 71.5603 69.14C71.5603 70.32 71.8203 71.39 72.3403 72.35C72.8603 73.31 73.5503 74.08 74.4103 74.66C75.2703 75.22 76.2203 75.5 77.2603 75.5C77.9403 75.5 78.5903 75.38 79.2103 75.14C79.8503 74.9 80.4003 74.58 80.8603 74.18C81.3403 73.76 81.6603 73.31 81.8203 72.83L83.8303 73.43C83.5503 74.17 83.0803 74.84 82.4203 75.44C81.7803 76.02 81.0203 76.48 80.1403 76.82C79.2803 77.14 78.3503 77.3 77.3503 77.3ZM85.7752 72.5C85.7752 71.52 86.0552 70.68 86.6152 69.98C87.1752 69.26 87.9452 68.71 88.9252 68.33C89.9252 67.93 91.0752 67.73 92.3752 67.73C93.1352 67.73 93.9252 67.79 94.7452 67.91C95.5652 68.03 96.2952 68.21 96.9352 68.45V67.13C96.9352 65.81 96.5452 64.76 95.7652 63.98C94.9852 63.2 93.9052 62.81 92.5252 62.81C91.6852 62.81 90.8552 62.97 90.0352 63.29C89.2352 63.59 88.3952 64.04 87.5152 64.64L86.7352 63.2C87.7552 62.5 88.7552 61.98 89.7352 61.64C90.7152 61.28 91.7152 61.1 92.7352 61.1C94.6552 61.1 96.1752 61.65 97.2952 62.75C98.4152 63.85 98.9752 65.37 98.9752 67.31V74.54C98.9752 74.82 99.0352 75.03 99.1552 75.17C99.2752 75.29 99.4652 75.36 99.7252 75.38V77C99.5052 77.02 99.3152 77.04 99.1552 77.06C98.9952 77.08 98.8752 77.08 98.7952 77.06C98.2952 77.04 97.9152 76.88 97.6552 76.58C97.3952 76.28 97.2552 75.96 97.2352 75.62L97.2052 74.48C96.5052 75.38 95.5952 76.08 94.4752 76.58C93.3552 77.06 92.2152 77.3 91.0552 77.3C90.0552 77.3 89.1452 77.09 88.3252 76.67C87.5252 76.23 86.8952 75.65 86.4352 74.93C85.9952 74.19 85.7752 73.38 85.7752 72.5ZM96.2452 73.7C96.4652 73.42 96.6352 73.15 96.7552 72.89C96.8752 72.63 96.9352 72.4 96.9352 72.2V69.92C96.2552 69.66 95.5452 69.46 94.8052 69.32C94.0852 69.18 93.3552 69.11 92.6152 69.11C91.1552 69.11 89.9752 69.4 89.0752 69.98C88.1752 70.56 87.7252 71.35 87.7252 72.35C87.7252 72.93 87.8752 73.48 88.1752 74C88.4752 74.5 88.9152 74.92 89.4952 75.26C90.0752 75.58 90.7552 75.74 91.5352 75.74C92.5152 75.74 93.4252 75.55 94.2652 75.17C95.1252 74.79 95.7852 74.3 96.2452 73.7ZM110.163 77.3C109.023 77.3 107.973 77.09 107.013 76.67C106.073 76.23 105.243 75.63 104.523 74.87C103.823 74.11 103.273 73.24 102.873 72.26C102.493 71.28 102.303 70.24 102.303 69.14C102.303 67.66 102.633 66.31 103.293 65.09C103.953 63.87 104.873 62.9 106.053 62.18C107.233 61.46 108.593 61.1 110.133 61.1C111.593 61.1 112.883 61.44 114.003 62.12C115.123 62.78 115.953 63.68 116.493 64.82L114.513 65.45C114.073 64.65 113.453 64.03 112.653 63.59C111.873 63.13 111.003 62.9 110.043 62.9C109.003 62.9 108.053 63.17 107.193 63.71C106.333 64.25 105.643 64.99 105.123 65.93C104.623 66.87 104.373 67.94 104.373 69.14C104.373 70.32 104.633 71.39 105.153 72.35C105.673 73.31 106.363 74.08 107.223 74.66C108.083 75.22 109.033 75.5 110.073 75.5C110.753 75.5 111.403 75.38 112.023 75.14C112.663 74.9 113.213 74.58 113.673 74.18C114.153 73.76 114.473 73.31 114.633 72.83L116.643 73.43C116.363 74.17 115.893 74.84 115.233 75.44C114.593 76.02 113.833 76.48 112.953 76.82C112.093 77.14 111.163 77.3 110.163 77.3ZM119.848 77V61.37H121.888V77H119.848ZM119.848 58.1V55.1H121.888V58.1H119.848ZM125.121 72.5C125.121 71.52 125.401 70.68 125.961 69.98C126.521 69.26 127.291 68.71 128.271 68.33C129.271 67.93 130.421 67.73 131.721 67.73C132.481 67.73 133.271 67.79 134.091 67.91C134.911 68.03 135.641 68.21 136.281 68.45V67.13C136.281 65.81 135.891 64.76 135.111 63.98C134.331 63.2 133.251 62.81 131.871 62.81C131.031 62.81 130.201 62.97 129.381 63.29C128.581 63.59 127.741 64.04 126.861 64.64L126.081 63.2C127.101 62.5 128.101 61.98 129.081 61.64C130.061 61.28 131.061 61.1 132.081 61.1C134.001 61.1 135.521 61.65 136.641 62.75C137.761 63.85 138.321 65.37 138.321 67.31V74.54C138.321 74.82 138.381 75.03 138.501 75.17C138.621 75.29 138.811 75.36 139.071 75.38V77C138.851 77.02 138.661 77.04 138.501 77.06C138.341 77.08 138.221 77.08 138.141 77.06C137.641 77.04 137.261 76.88 137.001 76.58C136.741 76.28 136.601 75.96 136.581 75.62L136.551 74.48C135.851 75.38 134.941 76.08 133.821 76.58C132.701 77.06 131.561 77.3 130.401 77.3C129.401 77.3 128.491 77.09 127.671 76.67C126.871 76.23 126.241 75.65 125.781 74.93C125.341 74.19 125.121 73.38 125.121 72.5ZM135.591 73.7C135.811 73.42 135.981 73.15 136.101 72.89C136.221 72.63 136.281 72.4 136.281 72.2V69.92C135.601 69.66 134.891 69.46 134.151 69.32C133.431 69.18 132.701 69.11 131.961 69.11C130.501 69.11 129.321 69.4 128.421 69.98C127.521 70.56 127.071 71.35 127.071 72.35C127.071 72.93 127.221 73.48 127.521 74C127.821 74.5 128.261 74.92 128.841 75.26C129.421 75.58 130.101 75.74 130.881 75.74C131.861 75.74 132.771 75.55 133.611 75.17C134.471 74.79 135.131 74.3 135.591 73.7Z" fill="#CD9849"/>
<path d="M13.4 9.56C11.5867 9.61333 9.98667 10.12 8.6 11.08C7.24 12.04 6.28 13.36 5.72 15.04V28H3V7.16H5.56V12.16C6.28 10.6933 7.22667 9.50667 8.4 8.6C9.6 7.69333 10.8667 7.18667 12.2 7.08C12.4667 7.05333 12.6933 7.04 12.88 7.04C13.0933 7.04 13.2667 7.05333 13.4 7.08V9.56ZM15.2653 22C15.2653 20.6933 15.6386 19.5733 16.3853 18.64C17.132 17.68 18.1586 16.9467 19.4653 16.44C20.7986 15.9067 22.332 15.64 24.0653 15.64C25.0786 15.64 26.132 15.72 27.2253 15.88C28.3186 16.04 29.292 16.28 30.1453 16.6V14.84C30.1453 13.08 29.6253 11.68 28.5853 10.64C27.5453 9.6 26.1053 9.08 24.2653 9.08C23.1453 9.08 22.0386 9.29333 20.9453 9.72C19.8786 10.12 18.7586 10.72 17.5853 11.52L16.5453 9.6C17.9053 8.66667 19.2386 7.97333 20.5453 7.52C21.852 7.04 23.1853 6.8 24.5453 6.8C27.1053 6.8 29.132 7.53333 30.6253 9C32.1186 10.4667 32.8653 12.4933 32.8653 15.08V24.72C32.8653 25.0933 32.9453 25.3733 33.1053 25.56C33.2653 25.72 33.5186 25.8133 33.8653 25.84V28C33.572 28.0267 33.3186 28.0533 33.1053 28.08C32.892 28.1067 32.732 28.1067 32.6253 28.08C31.9586 28.0533 31.452 27.84 31.1053 27.44C30.7586 27.04 30.572 26.6133 30.5453 26.16L30.5053 24.64C29.572 25.84 28.3586 26.7733 26.8653 27.44C25.372 28.08 23.852 28.4 22.3053 28.4C20.972 28.4 19.7586 28.12 18.6653 27.56C17.5986 26.9733 16.7586 26.2 16.1453 25.24C15.5586 24.2533 15.2653 23.1733 15.2653 22ZM29.2253 23.6C29.5186 23.2267 29.7453 22.8667 29.9053 22.52C30.0653 22.1733 30.1453 21.8667 30.1453 21.6V18.56C29.2386 18.2133 28.292 17.9467 27.3053 17.76C26.3453 17.5733 25.372 17.48 24.3853 17.48C22.4386 17.48 20.8653 17.8667 19.6653 18.64C18.4653 19.4133 17.8653 20.4667 17.8653 21.8C17.8653 22.5733 18.0653 23.3067 18.4653 24C18.8653 24.6667 19.452 25.2267 20.2253 25.68C20.9986 26.1067 21.9053 26.32 22.9453 26.32C24.252 26.32 25.4653 26.0667 26.5853 25.56C27.732 25.0533 28.612 24.4 29.2253 23.6ZM69.7422 28H67.0222V16.36C67.0222 13.9333 66.6355 12.1467 65.8622 11C65.0889 9.85333 63.9422 9.28 62.4222 9.28C60.8489 9.28 59.4355 9.84 58.1822 10.96C56.9555 12.08 56.0889 13.52 55.5822 15.28V28H52.8622V16.36C52.8622 13.9067 52.4889 12.12 51.7422 11C50.9955 9.85333 49.8489 9.28 48.3022 9.28C46.7555 9.28 45.3555 9.82667 44.1022 10.92C42.8489 12.0133 41.9689 13.4533 41.4622 15.24V28H38.7422V7.16H41.2222V11.88C42.1022 10.2533 43.2222 9 44.5822 8.12C45.9689 7.24 47.5022 6.8 49.1822 6.8C50.9155 6.8 52.3155 7.29333 53.3822 8.28C54.4489 9.26667 55.1022 10.56 55.3422 12.16C56.3022 10.4 57.4489 9.06667 58.7822 8.16C60.1422 7.25333 61.6755 6.8 63.3822 6.8C64.5555 6.8 65.5422 7.01333 66.3422 7.44C67.1689 7.86667 67.8222 8.48 68.3022 9.28C68.8089 10.0533 69.1689 11 69.3822 12.12C69.6222 13.2133 69.7422 14.44 69.7422 15.8V28ZM84.38 28.4C82.8867 28.4 81.5 28.12 80.22 27.56C78.9667 26.9733 77.8733 26.1867 76.94 25.2C76.0333 24.1867 75.3267 23.04 74.82 21.76C74.3133 20.4533 74.06 19.08 74.06 17.64C74.06 16.1467 74.3133 14.76 74.82 13.48C75.3267 12.1733 76.0467 11.0267 76.98 10.04C77.9133 9.02667 79.0067 8.24 80.26 7.68C81.54 7.09333 82.9267 6.8 84.42 6.8C85.9133 6.8 87.2867 7.09333 88.54 7.68C89.7933 8.24 90.8867 9.02667 91.82 10.04C92.7533 11.0267 93.4733 12.1733 93.98 13.48C94.4867 14.76 94.74 16.1467 94.74 17.64C94.74 19.08 94.4867 20.4533 93.98 21.76C93.4733 23.04 92.7533 24.1867 91.82 25.2C90.9133 26.1867 89.82 26.9733 88.54 27.56C87.2867 28.12 85.9 28.4 84.38 28.4ZM76.82 17.68C76.82 19.2267 77.1533 20.64 77.82 21.92C78.5133 23.1733 79.4333 24.1733 80.58 24.92C81.7267 25.64 82.9933 26 84.38 26C85.7667 26 87.0333 25.6267 88.18 24.88C89.3267 24.1333 90.2467 23.12 90.94 21.84C91.6333 20.5333 91.98 19.12 91.98 17.6C91.98 16.0533 91.6333 14.64 90.94 13.36C90.2467 12.08 89.3267 11.0667 88.18 10.32C87.0333 9.57333 85.7667 9.2 84.38 9.2C82.9933 9.2 81.7267 9.58667 80.58 10.36C79.46 11.1333 78.5533 12.16 77.86 13.44C77.1667 14.6933 76.82 16.1067 76.82 17.68ZM116.809 28H114.089V16.36C114.089 13.9067 113.729 12.12 113.009 11C112.289 9.85333 111.156 9.28 109.609 9.28C108.542 9.28 107.489 9.54667 106.449 10.08C105.409 10.5867 104.489 11.2933 103.689 12.2C102.916 13.08 102.356 14.0933 102.009 15.24V28H99.2891V7.16H101.769V11.88C102.329 10.8667 103.062 9.98667 103.969 9.24C104.876 8.46667 105.902 7.86667 107.049 7.44C108.196 7.01333 109.382 6.8 110.609 6.8C111.756 6.8 112.729 7.01333 113.529 7.44C114.329 7.86667 114.969 8.48 115.449 9.28C115.929 10.0533 116.276 11 116.489 12.12C116.702 13.2133 116.809 14.44 116.809 15.8V28ZM10.08 55.4C8.32 55.4 6.65333 55.12 5.08 54.56C3.50667 53.9733 2.16 53.1067 1.04 51.96L2.68 49C3.88 50.0667 5.08 50.84 6.28 51.32C7.50667 51.8 8.72 52.04 9.92 52.04C11.1467 52.04 12.1467 51.8133 12.92 51.36C13.6933 50.88 14.08 50.1867 14.08 49.28C14.08 48.6133 13.88 48.12 13.48 47.8C13.08 47.48 12.4933 47.2 11.72 46.96C10.9733 46.72 10.0667 46.4533 9 46.16C7.50667 45.7067 6.25333 45.24 5.24 44.76C4.22667 44.2533 3.46667 43.64 2.96 42.92C2.45333 42.2 2.2 41.28 2.2 40.16C2.2 38.8 2.54667 37.64 3.24 36.68C3.93333 35.72 4.89333 34.9867 6.12 34.48C7.37333 33.9733 8.81333 33.72 10.44 33.72C11.96 33.72 13.36 33.96 14.64 34.44C15.9467 34.8933 17.0933 35.6133 18.08 36.6L16.2 39.52C15.2667 38.6667 14.3067 38.04 13.32 37.64C12.36 37.24 11.32 37.04 10.2 37.04C9.56 37.04 8.94667 37.12 8.36 37.28C7.77333 37.4133 7.28 37.68 6.88 38.08C6.50667 38.4533 6.32 38.9867 6.32 39.68C6.32 40.24 6.48 40.6933 6.8 41.04C7.12 41.3867 7.6 41.68 8.24 41.92C8.88 42.16 9.66667 42.4267 10.6 42.72C12.2267 43.2 13.6133 43.68 14.76 44.16C15.9067 44.6133 16.7867 45.2133 17.4 45.96C18.04 46.68 18.36 47.68 18.36 48.96C18.36 50.9867 17.6 52.5733 16.08 53.72C14.5867 54.84 12.5867 55.4 10.08 55.4ZM20.7684 48.88C20.7684 47.5467 21.1418 46.3867 21.8884 45.4C22.6618 44.3867 23.7151 43.6133 25.0484 43.08C26.3818 42.52 27.9284 42.24 29.6884 42.24C30.6218 42.24 31.5684 42.3067 32.5284 42.44C33.5151 42.5733 34.3818 42.7867 35.1284 43.08V41.76C35.1284 40.2933 34.6884 39.1467 33.8084 38.32C32.9284 37.4933 31.6618 37.08 30.0084 37.08C28.8351 37.08 27.7284 37.2933 26.6884 37.72C25.6484 38.12 24.5418 38.6933 23.3684 39.44L21.8884 36.48C23.2751 35.5467 24.6618 34.8533 26.0484 34.4C27.4618 33.9467 28.9418 33.72 30.4884 33.72C33.2884 33.72 35.4884 34.4667 37.0884 35.96C38.7151 37.4267 39.5284 39.52 39.5284 42.24V50.04C39.5284 50.5467 39.6084 50.9067 39.7684 51.12C39.9551 51.3333 40.2618 51.4533 40.6884 51.48V55C40.2884 55.08 39.9284 55.1333 39.6084 55.16C39.2884 55.1867 39.0218 55.2 38.8084 55.2C37.8751 55.2 37.1684 54.9733 36.6884 54.52C36.2084 54.0667 35.9284 53.5333 35.8484 52.92L35.7284 51.72C34.8218 52.8933 33.6618 53.8 32.2484 54.44C30.8351 55.08 29.4084 55.4 27.9684 55.4C26.5818 55.4 25.3418 55.12 24.2484 54.56C23.1551 53.9733 22.3018 53.1867 21.6884 52.2C21.0751 51.2133 20.7684 50.1067 20.7684 48.88ZM34.0884 50.16C34.4084 49.8133 34.6618 49.4667 34.8484 49.12C35.0351 48.7733 35.1284 48.4667 35.1284 48.2V45.8C34.3818 45.5067 33.5951 45.2933 32.7684 45.16C31.9418 45 31.1284 44.92 30.3284 44.92C28.7284 44.92 27.4218 45.24 26.4084 45.88C25.4218 46.52 24.9284 47.4 24.9284 48.52C24.9284 49.1333 25.0884 49.72 25.4084 50.28C25.7551 50.84 26.2351 51.2933 26.8484 51.64C27.4884 51.9867 28.2751 52.16 29.2084 52.16C30.1684 52.16 31.0884 51.9733 31.9684 51.6C32.8484 51.2267 33.5551 50.7467 34.0884 50.16ZM44.9066 25.8H49.3066V48.96C49.3066 50.0267 49.4666 50.7067 49.7866 51C50.1066 51.2933 50.5066 51.44 50.9866 51.44C51.5199 51.44 52.0132 51.3867 52.4666 51.28C52.9466 51.1733 53.3599 51.04 53.7066 50.88L54.3466 54.36C53.7066 54.6267 52.9466 54.8533 52.0666 55.04C51.1866 55.2267 50.3999 55.32 49.7066 55.32C48.2132 55.32 47.0399 54.9067 46.1866 54.08C45.3332 53.2267 44.9066 52.0533 44.9066 50.56V25.8ZM55.5778 44.56C55.5778 42.56 55.9778 40.7467 56.7778 39.12C57.6045 37.4667 58.7245 36.16 60.1378 35.2C61.5511 34.2133 63.1778 33.72 65.0178 33.72C66.6178 33.72 68.0578 34.1333 69.3378 34.96C70.6445 35.7867 71.6578 36.8133 72.3778 38.04V25.8H76.7778V50.04C76.7778 50.5467 76.8711 50.9067 77.0578 51.12C77.2445 51.3333 77.5511 51.4533 77.9778 51.48V55C77.1511 55.1333 76.5111 55.2 76.0578 55.2C75.2311 55.2 74.5245 54.96 73.9378 54.48C73.3778 54 73.0845 53.4267 73.0578 52.76L73.0178 51.2C72.2178 52.5333 71.1378 53.5733 69.7778 54.32C68.4178 55.04 67.0045 55.4 65.5378 55.4C64.0978 55.4 62.7645 55.12 61.5378 54.56C60.3378 54 59.2845 53.2133 58.3778 52.2C57.4978 51.1867 56.8045 50.0267 56.2978 48.72C55.8178 47.4133 55.5778 46.0267 55.5778 44.56ZM72.3778 47.48V42C72.0845 41.1467 71.6045 40.3867 70.9378 39.72C70.2978 39.0267 69.5645 38.48 68.7378 38.08C67.9378 37.68 67.1378 37.48 66.3378 37.48C65.4045 37.48 64.5511 37.68 63.7778 38.08C63.0311 38.48 62.3778 39.0133 61.8178 39.68C61.2845 40.3467 60.8711 41.1067 60.5778 41.96C60.2845 42.8133 60.1378 43.7067 60.1378 44.64C60.1378 45.6 60.2978 46.5067 60.6178 47.36C60.9378 48.1867 61.3911 48.9333 61.9778 49.6C62.5911 50.24 63.2845 50.7467 64.0578 51.12C64.8578 51.4667 65.7245 51.64 66.6578 51.64C67.2445 51.64 67.8311 51.5333 68.4178 51.32C69.0311 51.1067 69.6045 50.8133 70.1378 50.44C70.6978 50.0667 71.1645 49.6267 71.5378 49.12C71.9378 48.6133 72.2178 48.0667 72.3778 47.48ZM80.8466 48.88C80.8466 47.5467 81.2199 46.3867 81.9666 45.4C82.7399 44.3867 83.7932 43.6133 85.1266 43.08C86.4599 42.52 88.0066 42.24 89.7666 42.24C90.6999 42.24 91.6466 42.3067 92.6066 42.44C93.5932 42.5733 94.4599 42.7867 95.2066 43.08V41.76C95.2066 40.2933 94.7666 39.1467 93.8866 38.32C93.0066 37.4933 91.7399 37.08 90.0866 37.08C88.9132 37.08 87.8066 37.2933 86.7666 37.72C85.7266 38.12 84.6199 38.6933 83.4466 39.44L81.9666 36.48C83.3532 35.5467 84.7399 34.8533 86.1266 34.4C87.5399 33.9467 89.0199 33.72 90.5666 33.72C93.3666 33.72 95.5666 34.4667 97.1666 35.96C98.7932 37.4267 99.6066 39.52 99.6066 42.24V50.04C99.6066 50.5467 99.6866 50.9067 99.8466 51.12C100.033 51.3333 100.34 51.4533 100.767 51.48V55C100.367 55.08 100.007 55.1333 99.6866 55.16C99.3666 55.1867 99.0999 55.2 98.8866 55.2C97.9532 55.2 97.2466 54.9733 96.7666 54.52C96.2866 54.0667 96.0066 53.5333 95.9266 52.92L95.8066 51.72C94.8999 52.8933 93.7399 53.8 92.3266 54.44C90.9132 55.08 89.4866 55.4 88.0466 55.4C86.6599 55.4 85.4199 55.12 84.3266 54.56C83.2332 53.9733 82.3799 53.1867 81.7666 52.2C81.1532 51.2133 80.8466 50.1067 80.8466 48.88ZM94.1666 50.16C94.4866 49.8133 94.7399 49.4667 94.9266 49.12C95.1132 48.7733 95.2066 48.4667 95.2066 48.2V45.8C94.4599 45.5067 93.6732 45.2933 92.8466 45.16C92.0199 45 91.2066 44.92 90.4066 44.92C88.8066 44.92 87.4999 45.24 86.4866 45.88C85.4999 46.52 85.0066 47.4 85.0066 48.52C85.0066 49.1333 85.1666 49.72 85.4866 50.28C85.8332 50.84 86.3132 51.2933 86.9266 51.64C87.5666 51.9867 88.3532 52.16 89.2866 52.16C90.2466 52.16 91.1666 51.9733 92.0466 51.6C92.9266 51.2267 93.6332 50.7467 94.1666 50.16ZM123.705 55H119.305V43.28C119.305 41.3333 118.985 39.9067 118.345 39C117.731 38.0933 116.811 37.64 115.585 37.64C114.731 37.64 113.878 37.8533 113.025 38.28C112.198 38.7067 111.451 39.2933 110.785 40.04C110.118 40.76 109.638 41.6 109.345 42.56V55H104.945V34.08H108.945V38.28C109.478 37.3467 110.171 36.5467 111.025 35.88C111.905 35.1867 112.891 34.6533 113.985 34.28C115.078 33.9067 116.238 33.72 117.465 33.72C118.718 33.72 119.745 33.9467 120.545 34.4C121.371 34.8533 122.011 35.48 122.465 36.28C122.945 37.0533 123.265 37.96 123.425 39C123.611 40.0133 123.705 41.0933 123.705 42.24V55ZM147.572 55H143.172V43.28C143.172 41.3867 142.825 39.9733 142.132 39.04C141.439 38.1067 140.465 37.64 139.212 37.64C138.439 37.64 137.639 37.8533 136.812 38.28C135.985 38.7067 135.252 39.2933 134.612 40.04C133.972 40.76 133.505 41.6 133.212 42.56V55H128.812V25.8H133.212V38.28C134.012 36.8667 135.105 35.76 136.492 34.96C137.879 34.1333 139.372 33.72 140.972 33.72C142.279 33.72 143.359 33.9467 144.212 34.4C145.065 34.8533 145.732 35.48 146.212 36.28C146.719 37.0533 147.065 37.96 147.252 39C147.465 40.0133 147.572 41.0933 147.572 42.24V55ZM151.159 48.88C151.159 47.5467 151.532 46.3867 152.279 45.4C153.052 44.3867 154.106 43.6133 155.439 43.08C156.772 42.52 158.319 42.24 160.079 42.24C161.012 42.24 161.959 42.3067 162.919 42.44C163.906 42.5733 164.772 42.7867 165.519 43.08V41.76C165.519 40.2933 165.079 39.1467 164.199 38.32C163.319 37.4933 162.052 37.08 160.399 37.08C159.226 37.08 158.119 37.2933 157.079 37.72C156.039 38.12 154.932 38.6933 153.759 39.44L152.279 36.48C153.666 35.5467 155.052 34.8533 156.439 34.4C157.852 33.9467 159.332 33.72 160.879 33.72C163.679 33.72 165.879 34.4667 167.479 35.96C169.106 37.4267 169.919 39.52 169.919 42.24V50.04C169.919 50.5467 169.999 50.9067 170.159 51.12C170.346 51.3333 170.652 51.4533 171.079 51.48V55C170.679 55.08 170.319 55.1333 169.999 55.16C169.679 55.1867 169.412 55.2 169.199 55.2C168.266 55.2 167.559 54.9733 167.079 54.52C166.599 54.0667 166.319 53.5333 166.239 52.92L166.119 51.72C165.212 52.8933 164.052 53.8 162.639 54.44C161.226 55.08 159.799 55.4 158.359 55.4C156.972 55.4 155.732 55.12 154.639 54.56C153.546 53.9733 152.692 53.1867 152.079 52.2C151.466 51.2133 151.159 50.1067 151.159 48.88ZM164.479 50.16C164.799 49.8133 165.052 49.4667 165.239 49.12C165.426 48.7733 165.519 48.4667 165.519 48.2V45.8C164.772 45.5067 163.986 45.2933 163.159 45.16C162.332 45 161.519 44.92 160.719 44.92C159.119 44.92 157.812 45.24 156.799 45.88C155.812 46.52 155.319 47.4 155.319 48.52C155.319 49.1333 155.479 49.72 155.799 50.28C156.146 50.84 156.626 51.2933 157.239 51.64C157.879 51.9867 158.666 52.16 159.599 52.16C160.559 52.16 161.479 51.9733 162.359 51.6C163.239 51.2267 163.946 50.7467 164.479 50.16Z" fill="white"/>
</svg>
